<svg xmlns="http://www.w3.org/2000/svg" width="349" height="102" viewBox="0 0 349 102">
  <defs>
    <style>
      .cls-1 {
        fill: #fff;
      }

      .cls-2, .cls-3 {
        fill: #373737;
      }

      .cls-2 {
        fill-rule: evenodd;
      }

      .cls-3 {
        font-size: 34px;
        font-family: Overpass-SemiBold, Overpass;
        font-weight: 600;
      }
    </style>
  </defs>
  <g id="Group_1" data-name="Group 1" transform="translate(-685 -495)">
    <rect id="Rectangle_3" data-name="Rectangle 3" class="cls-1" width="349" height="102" rx="10" transform="translate(685 495)"/>
    <g id="iconfinder_phone_326545_1_" data-name="iconfinder_phone_326545(1)" transform="translate(736 531.439)">
      <g id="Icons-Communication">
        <g id="phone">
          <path id="Shape" class="cls-2" d="M6.011,13.024a26,26,0,0,0,11.02,11.02L20.7,20.371a1.329,1.329,0,0,1,1.67-.334,17.466,17.466,0,0,0,6.011,1,1.578,1.578,0,0,1,1.67,1.67v5.677a1.578,1.578,0,0,1-1.67,1.67A28.362,28.362,0,0,1,0,1.67,1.578,1.578,0,0,1,1.67,0H7.514a1.578,1.578,0,0,1,1.67,1.67,18.91,18.91,0,0,0,1,6.011,2.056,2.056,0,0,1-.334,1.67l-3.84,3.673Z"/>
        </g>
      </g>
    </g>
    <text id="_7550104879" data-name="7550104879" class="cls-3" transform="translate(790 557.329)"><tspan x="0" y="0">7550104879</tspan></text>
  </g>
</svg>
