<svg xmlns="http://www.w3.org/2000/svg" width="44.414" height="44.462" viewBox="0 0 44.414 44.462">
  <g id="Group_33" data-name="Group 33" transform="translate(0)">
    <path id="Path_136" data-name="Path 136" d="M37.283,44.862H7.819A7.579,7.579,0,0,1,.3,37.335V7.927A7.579,7.579,0,0,1,7.819.4H37.2a7.579,7.579,0,0,1,7.519,7.527V37.335A7.5,7.5,0,0,1,37.283,44.862Z" transform="translate(-0.3 -0.4)" fill="#42a147"/>
    <g id="Group_32" data-name="Group 32" transform="translate(4.109 9.152)">
      <circle id="Ellipse_37" data-name="Ellipse 37" cx="2.273" cy="2.273" r="2.273" transform="translate(20.284 21.648)" fill="#fff"/>
      <circle id="Ellipse_38" data-name="Ellipse 38" cx="2.273" cy="2.273" r="2.273" transform="translate(26.141 21.648)" fill="#fff"/>
      <path id="Path_137" data-name="Path 137" d="M24.979,36.627s1.224-5.683,8.044-5.683c2.71,0,6.12.787,8.393-.962A7.308,7.308,0,0,0,43.776,23.6c.087.612-1.923,1.137-2.273,1.224-3.585.962-7.694-.35-11.1,1.4a10.545,10.545,0,0,0-5.158,6.382A7.888,7.888,0,0,0,24.979,36.627Z" transform="translate(-7.493 -12.444)" fill="#fff"/>
      <path id="Path_138" data-name="Path 138" d="M24.874,28.426s1.049-5.683,7.869-5.945c2.71-.087,6.12.525,8.306-1.311a6.862,6.862,0,0,0,2.1-6.47c.087.612-1.923,1.224-2.186,1.311a18.257,18.257,0,0,1-4.371.7c-2.186.175-4.284-.262-6.207.787A10.205,10.205,0,0,0,24.874,28.426Z" transform="translate(-7.475 -11.325)" fill="#fff"/>
      <path id="Path_139" data-name="Path 139" d="M5,10.98h6.47c2.8,0,7.169-.874,8.918,1.749a7.425,7.425,0,0,1,1.049,3.585c.087,1.4-.262,18.71,0,18.71,0,0-4.284-.787-4.634-3.5,0,0,.35-12.677.35-12.852,0-3.585-3.847-3.235-6.47-3.147C7.8,15.614,5.087,13.69,5,10.98Z" transform="translate(-5 -10.84)" fill="#fff"/>
    </g>
  </g>
</svg>
