<svg xmlns="http://www.w3.org/2000/svg" width="228" height="44.462" viewBox="0 0 228 44.462">
  <defs>
    <style>
      .cls-1 {
        fill: #42a147;
      }

      .cls-2 {
        fill: #fff;
      }

      .cls-3 {
        fill: #221f1f;
      }
    </style>
  </defs>
  <g id="trolley_fresh_logo" data-name="trolley fresh logo" transform="translate(-0.3 -0.4)">
    <g id="Group_33" data-name="Group 33" transform="translate(0.3 0.4)">
      <path id="Path_136" data-name="Path 136" class="cls-1" d="M37.283,44.862H7.819A7.579,7.579,0,0,1,.3,37.335V7.927A7.579,7.579,0,0,1,7.819.4H37.2a7.579,7.579,0,0,1,7.519,7.527V37.335A7.5,7.5,0,0,1,37.283,44.862Z" transform="translate(-0.3 -0.4)"/>
      <g id="Group_32" data-name="Group 32" transform="translate(4.109 9.152)">
        <circle id="Ellipse_37" data-name="Ellipse 37" class="cls-2" cx="2.273" cy="2.273" r="2.273" transform="translate(20.284 21.648)"/>
        <circle id="Ellipse_38" data-name="Ellipse 38" class="cls-2" cx="2.273" cy="2.273" r="2.273" transform="translate(26.141 21.648)"/>
        <path id="Path_137" data-name="Path 137" class="cls-2" d="M24.979,36.627s1.224-5.683,8.044-5.683c2.71,0,6.12.787,8.393-.962A7.308,7.308,0,0,0,43.776,23.6c.087.612-1.923,1.137-2.273,1.224-3.585.962-7.694-.35-11.1,1.4a10.545,10.545,0,0,0-5.158,6.382A7.888,7.888,0,0,0,24.979,36.627Z" transform="translate(-7.493 -12.444)"/>
        <path id="Path_138" data-name="Path 138" class="cls-2" d="M24.874,28.426s1.049-5.683,7.869-5.945c2.71-.087,6.12.525,8.306-1.311a6.862,6.862,0,0,0,2.1-6.47c.087.612-1.923,1.224-2.186,1.311a18.257,18.257,0,0,1-4.371.7c-2.186.175-4.284-.262-6.207.787A10.205,10.205,0,0,0,24.874,28.426Z" transform="translate(-7.475 -11.325)"/>
        <path id="Path_139" data-name="Path 139" class="cls-2" d="M5,10.98h6.47c2.8,0,7.169-.874,8.918,1.749a7.425,7.425,0,0,1,1.049,3.585c.087,1.4-.262,18.71,0,18.71,0,0-4.284-.787-4.634-3.5,0,0,.35-12.677.35-12.852,0-3.585-3.847-3.235-6.47-3.147C7.8,15.614,5.087,13.69,5,10.98Z" transform="translate(-5 -10.84)"/>
      </g>
    </g>
    <g id="Group_36" data-name="Group 36" transform="translate(54.578 5.471)">
      <g id="Group_34" data-name="Group 34" transform="translate(0 4.634)">
        <path id="Path_140" data-name="Path 140" class="cls-1" d="M75.914,11.9H62.1a4.456,4.456,0,0,0,3.41,3.853h3.322v16.2s.35,2.715,3.847,3.415V15.753h6.732A4.452,4.452,0,0,0,75.914,11.9Zm33.66,0V31.955s.35,2.715,3.847,3.415V15.228A4.413,4.413,0,0,0,109.574,11.9Zm7.082,0V31.955s.35,2.715,3.847,3.415V15.228A4.413,4.413,0,0,0,116.656,11.9ZM79.324,24.248V35.195h3.847V24.248s.262-3.766,3.847-3.766v-3.5C86.93,16.979,79.324,16.1,79.324,24.248Zm18.1-7.707a9.37,9.37,0,1,0,9.355,9.37A9.373,9.373,0,0,0,97.421,16.541Zm0,14.975a5.6,5.6,0,1,1,5.6-5.6A5.639,5.639,0,0,1,97.421,31.517Zm35.5-15.5a9.633,9.633,0,0,0,0,19.266,9.739,9.739,0,0,0,6.732-2.715,2.754,2.754,0,0,0-.437-2.277,2.412,2.412,0,0,0-2.186-.35,5.608,5.608,0,0,1-4.022,1.664,5.879,5.879,0,0,1-5.246-3.24h14.513a8.672,8.672,0,0,0,.35-2.627A9.747,9.747,0,0,0,132.918,16.016Zm-5.77,8.495a5.885,5.885,0,0,1,11.541,0Zm27.8-7.006-4.371,11.647-3.672-9.983s-.525-2.014-4.9-1.314l6.382,14.975-1.4,4.116s-.962,2.8,2.623,3.941L158.1,21.8C157.923,21.8,158.884,17.68,154.95,17.5Z" transform="translate(-62.1 -11.55)"/>
        <path id="Path_141" data-name="Path 141" class="cls-3" d="M181.861,12.9a5.943,5.943,0,0,0-1.661,4.546V35.281h1.836v-11.1h9.005V22.341h-9.005v-4.9a4.141,4.141,0,0,1,1.049-3.147,3.414,3.414,0,0,1,2.186-.874h6.207V11.587h-6.12A4,4,0,0,0,181.861,12.9Zm18.185,5.508c-2.1.175-6.12,1.574-6.208,5.333V35.106h1.836V23.74c.087-3.06,4.284-3.5,4.459-3.5l-.087-.962Zm50.622,5.77c0-3.759-3.5-7.082-7.432-7.169a8.6,8.6,0,0,0-5.77,1.923V11.5H235.63V35.281h1.836v-11.8a3.851,3.851,0,0,1,1.224-3.147,7.069,7.069,0,0,1,4.546-1.486c2.623,0,5.6,2.273,5.6,5.246V35.106h1.836Zm-39.693-6.994a9.093,9.093,0,1,0,8.656,11.89H217.62a7.328,7.328,0,0,1-6.645,4.371,7.255,7.255,0,0,1-7.169-6.295H219.98c0-.35.087-.612.087-.962A9.124,9.124,0,0,0,210.975,17.183Zm-7.082,8.131a7.23,7.23,0,0,1,14.338,0Zm24.131-.525a9.044,9.044,0,0,1-1.836-.962c-1.311-.874-2.186-2.535-1.311-4.022a2.523,2.523,0,0,1,1.836-1.137c.175,0,.35-.087.612-.087a3.2,3.2,0,0,1,2.186.7,2.909,2.909,0,0,1,.787,2.186h1.836a4.615,4.615,0,0,0-1.4-3.585,5.108,5.108,0,0,0-3.585-1.224,2.974,2.974,0,0,0-.874.087,4.312,4.312,0,0,0-3.147,2.1,4.98,4.98,0,0,0,1.923,6.557c.7.437,1.4.787,2.1,1.137a8.161,8.161,0,0,1,2.885,1.836,3.492,3.492,0,0,1,.787,2.8,2.865,2.865,0,0,1-1.311,1.749,3.933,3.933,0,0,1-4.546-.262,2.345,2.345,0,0,1-.7-2.273l-1.749-.525a4.079,4.079,0,0,0,1.224,4.2,5.4,5.4,0,0,0,3.672,1.311,5.915,5.915,0,0,0,3.147-.874,5.469,5.469,0,0,0,2.186-2.885,5.3,5.3,0,0,0-1.137-4.459A9.138,9.138,0,0,0,228.024,24.789Z" transform="translate(-76.946 -11.5)"/>
      </g>
      <g id="Group_35" data-name="Group 35" transform="translate(127.707)">
        <path id="Path_142" data-name="Path 142" class="cls-1" d="M208.392,19.081a4.6,4.6,0,0,1,4.634-3.41c1.574,0,3.585.437,4.9-.612a4.009,4.009,0,0,0,1.311-3.759c0,.35-1.137.7-1.311.7-2.1.612-4.459-.175-6.47.874a12.79,12.79,0,0,0-1.137.787,6.791,6.791,0,0,0-1.836,2.885A8.235,8.235,0,0,0,208.392,19.081Z" transform="translate(-208.189 -6.841)"/>
        <path id="Path_143" data-name="Path 143" class="cls-1" d="M208.283,14.244a4.469,4.469,0,0,1,4.546-3.5c1.574-.087,3.585.262,4.9-.787A4.254,4.254,0,0,0,218.95,6.2c.087.35-1.137.7-1.311.787-.874.175-1.749.262-2.623.35-1.224.087-2.448-.175-3.585.525A5.866,5.866,0,0,0,208.283,14.244Z" transform="translate(-208.169 -6.2)"/>
      </g>
    </g>
  </g>
</svg>
